<?xml version="1.0" encoding="iso-8859-1"?>
<!DOCTYPE svg PUBLIC "-//W3C//DTD SVG 1.1//EN" "http://www.w3.org/Graphics/SVG/1.1/DTD/svg11.dtd">
<svg fill="" height="800px" width="800px" version="1.1" id="Capa_1" xmlns="http://www.w3.org/2000/svg" xmlns:xlink="http://www.w3.org/1999/xlink" 
	 viewBox="0 0 496.301 496.301" xml:space="preserve">
<g>
	<path d="M320.35,421.521c-26.064-4.529-45.983-27.174-45.983-54.504V257.641c-6.645-8.382-14.155-16.023-22.539-22.62
		c-9.813-7.729-17.585-17.624-22.91-28.787c-14.191,12.007-30.857,19.972-48.875,22.602l23.729,151.264
		c0.34,2.093-0.144,4.242-1.319,6.003l-28.396,42.609c-1.56,2.356-4.2,3.775-7.03,3.775c-2.83,0-5.471-1.419-7.049-3.768
		l-28.41-42.617c-1.176-1.761-1.657-3.91-1.318-6.003l23.713-151.27c-18.002-2.641-34.652-10.603-48.861-22.613
		c-5.309,11.172-13.065,21.042-22.908,28.805c-25.484,20.064-43.808,48.991-49.908,82.874L7.264,457.107
		c-1.755,9.709,0.888,19.691,7.226,27.271c6.307,7.553,15.668,11.923,25.518,11.923h253.97c9.867,0,19.228-4.37,25.519-11.923
		c6.355-7.579,9.008-17.562,7.237-27.271L320.35,421.521z"/>
	<path d="M167.025,196.923c41.703,0,75.518-44.083,75.518-98.459C242.542,44.09,208.728,0,167.025,0
		C125.29,0,91.49,44.09,91.49,98.464C91.49,152.84,125.29,196.923,167.025,196.923z"/>
	<path d="M470.695,214.307V181.1c0-39.875-32.4-72.278-72.268-72.278c-39.869,0-72.272,32.403-72.272,72.278v33.206
		c-10.603,1.817-18.839,10.637-18.839,21.777v130.934c0,12.448,10.056,22.51,22.51,22.51h137.217
		c12.438,0,22.525-10.061,22.525-22.51V236.084C489.568,224.943,481.314,216.124,470.695,214.307z M416.22,316.219
		c0,9.832-7.979,17.805-17.811,17.805c-9.83,0-17.809-7.973-17.809-17.805v-29.343c0-9.831,7.979-17.803,17.809-17.803
		c9.832,0,17.811,7.972,17.811,17.803V316.219z M433.001,213.568h-69.135V181.1c0-19.066,15.527-34.58,34.561-34.58
		c19.049,0,34.574,15.514,34.574,34.58V213.568z"/>
</g>
</svg>